<svg width="214" height="214" viewBox="0 0 214 214" fill="none" xmlns="http://www.w3.org/2000/svg">
<g clip-path="url(#clip0_472_625)">
<path d="M201.78 103.027C191.085 133.576 211.805 174.142 161.611 184.321C143.381 188.012 130.196 179.171 112.568 189.59C81.3677 208.035 62.4011 206.737 49.2436 192.279C40.8646 183.063 39.2852 167.388 29.0991 161.543C7.02722 148.89 1.19134 129.938 6.09026 107.2C8.66019 95.2432 19.1273 87.1647 25.5789 79.0728C33.128 69.6033 35.698 60.4147 39.3119 50.7847C55.4543 7.89104 91.112 -2.42109 117.762 0.441162C140.235 2.84866 154.798 19.7814 161.839 32.8755C176.187 59.5854 218.31 55.8137 201.78 103.027ZM214 119.92C213.96 116.536 211.203 113.834 207.816 113.861C204.43 113.901 201.726 116.657 201.753 120.04C201.793 123.424 204.55 126.126 207.937 126.099C211.323 126.073 214.027 123.304 214 119.92ZM136.942 195.235C132.619 191.008 125.686 191.075 121.456 195.395C117.226 199.715 117.293 206.644 121.617 210.87C125.94 215.097 132.873 215.03 137.103 210.71C141.346 206.403 141.266 199.461 136.942 195.235ZM1.29842 64.4673C3.03848 66.206 5.84933 66.206 7.576 64.4673C9.31606 62.7285 9.31606 59.9198 7.576 58.1944C5.83595 56.4557 3.02509 56.4557 1.29842 58.1944C-0.42825 59.9332 -0.42825 62.7419 1.29842 64.4673ZM169.294 27.6058C168.732 31.4578 171.395 35.0289 175.25 35.5907C179.105 36.1524 182.679 33.4908 183.241 29.6388C183.803 25.7868 181.14 22.2157 177.285 21.6539C173.443 21.0922 169.856 23.7672 169.294 27.6058ZM13.7331 62.6617C14.4158 67.3028 18.7391 70.5262 23.3837 69.844C28.0283 69.1619 31.2541 64.8418 30.5715 60.2007C29.8889 55.5595 25.5655 52.3362 20.9209 53.0183C16.2763 53.7004 13.0639 58.0072 13.7331 62.6617ZM161.879 17.3605C161.584 19.3802 162.976 21.2527 164.997 21.5469C167.019 21.8412 168.892 20.4502 169.187 18.4305C169.481 16.4109 168.089 14.5384 166.068 14.2442C164.047 13.9499 162.173 15.3409 161.879 17.3605ZM33.4627 195.181C33.717 196.933 35.35 198.15 37.1168 197.896C38.8702 197.642 40.0883 196.01 39.8339 194.245C39.5796 192.493 37.9467 191.276 36.1798 191.53C34.4264 191.784 33.2084 193.416 33.4627 195.181ZM36.6483 180.308C36.6082 175.814 32.9139 172.203 28.4031 172.243C23.9058 172.283 20.2918 175.975 20.3319 180.482C20.3721 184.976 24.0664 188.587 28.5771 188.547C33.0879 188.494 36.7018 184.802 36.6483 180.308Z" fill="url(#paint0_linear_472_625)"/>
<path d="M39.3521 69.189V161.075C39.3521 167.388 44.4651 172.497 50.7829 172.497H163.217C169.535 172.497 174.648 167.388 174.648 161.075V69.189H39.3521Z" fill="white"/>
<path d="M174.648 73.4553H39.3521V58.4218C39.3521 52.1088 44.4651 46.9995 50.7829 46.9995H163.217C169.535 46.9995 174.648 52.1088 174.648 58.4218V73.4553Z" fill="#2473FF"/>
<path d="M67.2866 39.9912C64.2348 39.9912 61.7585 42.4656 61.7585 45.5151V55.5062C61.7585 58.5557 64.2348 61.0301 67.2866 61.0301C70.3384 61.0301 72.8146 58.5557 72.8146 55.5062V45.5151C72.8012 42.4656 70.3384 39.9912 67.2866 39.9912Z" fill="#2E3369"/>
<path d="M85.3967 39.9912C82.3449 39.9912 79.8687 42.4656 79.8687 45.5151V55.5062C79.8687 58.5557 82.3449 61.0301 85.3967 61.0301C88.4485 61.0301 90.9247 58.5557 90.9247 55.5062V45.5151C90.9247 42.4656 88.4485 39.9912 85.3967 39.9912Z" fill="#2E3369"/>
<path d="M128.603 39.9912C125.552 39.9912 123.075 42.4656 123.075 45.5151V55.5062C123.075 58.5557 125.552 61.0301 128.603 61.0301C131.655 61.0301 134.131 58.5557 134.131 55.5062V45.5151C134.131 42.4656 131.655 39.9912 128.603 39.9912Z" fill="#2E3369"/>
<path d="M146.714 39.9912C143.662 39.9912 141.186 42.4656 141.186 45.5151V55.5062C141.186 58.5557 143.662 61.0301 146.714 61.0301C149.765 61.0301 152.242 58.5557 152.242 55.5062V45.5151C152.242 42.4656 149.765 39.9912 146.714 39.9912Z" fill="#2E3369"/>
<path d="M66.3496 101.449H53.9015C52.9512 101.449 52.1882 100.687 52.1882 99.7372V87.2984C52.1882 86.3488 52.9512 85.5864 53.9015 85.5864H66.3496C67.2999 85.5864 68.0629 86.3488 68.0629 87.2984V99.7372C68.0629 100.673 67.2866 101.449 66.3496 101.449Z" fill="#EDF3F9"/>
<path d="M85.102 101.449H72.654C71.7036 101.449 70.9407 100.687 70.9407 99.7372V87.2984C70.9407 86.3488 71.7036 85.5864 72.654 85.5864H85.102C86.0524 85.5864 86.8153 86.3488 86.8153 87.2984V99.7372C86.8153 100.673 86.039 101.449 85.102 101.449Z" fill="#EDF3F9"/>
<path d="M103.841 101.449H91.393C90.4426 101.449 89.6797 100.687 89.6797 99.7372V87.2984C89.6797 86.3488 90.4426 85.5864 91.393 85.5864H103.841C104.791 85.5864 105.554 86.3488 105.554 87.2984V99.7372C105.554 100.673 104.791 101.449 103.841 101.449Z" fill="#EDF3F9"/>
<path d="M122.594 101.449H110.145C109.195 101.449 108.432 100.687 108.432 99.7372V87.2984C108.432 86.3488 109.195 85.5864 110.145 85.5864H122.594C123.544 85.5864 124.307 86.3488 124.307 87.2984V99.7372C124.307 100.673 123.544 101.449 122.594 101.449Z" fill="#DFF0FE"/>
<path d="M141.346 101.449H128.898C127.948 101.449 127.185 100.687 127.185 99.7372V87.2984C127.185 86.3488 127.948 85.5864 128.898 85.5864H141.346C142.296 85.5864 143.059 86.3488 143.059 87.2984V99.7372C143.059 100.673 142.296 101.449 141.346 101.449Z" fill="#DFF0FE"/>
<path d="M160.098 101.449H147.65C146.7 101.449 145.937 100.687 145.937 99.7372V87.2984C145.937 86.3488 146.7 85.5864 147.65 85.5864H160.098C161.049 85.5864 161.812 86.3488 161.812 87.2984V99.7372C161.812 100.673 161.049 101.449 160.098 101.449Z" fill="#DFF0FE"/>
<path d="M66.3496 120H53.9015C52.9512 120 52.1882 119.238 52.1882 118.288V105.85C52.1882 104.9 52.9512 104.138 53.9015 104.138H66.3496C67.2999 104.138 68.0629 104.9 68.0629 105.85V118.288C68.0629 119.225 67.2866 120 66.3496 120Z" fill="#DFF0FE"/>
<path d="M85.102 120H72.654C71.7036 120 70.9407 119.238 70.9407 118.288V105.85C70.9407 104.9 71.7036 104.138 72.654 104.138H85.102C86.0524 104.138 86.8153 104.9 86.8153 105.85V118.288C86.8153 119.225 86.039 120 85.102 120Z" fill="#DFF0FE"/>
<path d="M103.841 120H91.393C90.4426 120 89.6797 119.238 89.6797 118.288V105.85C89.6797 104.9 90.4426 104.138 91.393 104.138H103.841C104.791 104.138 105.554 104.9 105.554 105.85V118.288C105.554 119.225 104.791 120 103.841 120Z" fill="#71C687"/>
<path d="M122.594 120H110.145C109.195 120 108.432 119.238 108.432 118.288V105.85C108.432 104.9 109.195 104.138 110.145 104.138H122.594C123.544 104.138 124.307 104.9 124.307 105.85V118.288C124.307 119.225 123.544 120 122.594 120Z" fill="#DFF0FE"/>
<path d="M141.346 120H128.898C127.948 120 127.185 119.238 127.185 118.288V105.85C127.185 104.9 127.948 104.138 128.898 104.138H141.346C142.296 104.138 143.059 104.9 143.059 105.85V118.288C143.059 119.225 142.296 120 141.346 120Z" fill="#DFF0FE"/>
<path d="M160.098 120H147.65C146.7 120 145.937 119.238 145.937 118.288V105.85C145.937 104.9 146.7 104.138 147.65 104.138H160.098C161.049 104.138 161.812 104.9 161.812 105.85V118.288C161.812 119.225 161.049 120 160.098 120Z" fill="#DFF0FE"/>
<path d="M66.3496 138.551H53.9015C52.9512 138.551 52.1882 137.789 52.1882 136.839V124.4C52.1882 123.451 52.9512 122.688 53.9015 122.688H66.3496C67.2999 122.688 68.0629 123.451 68.0629 124.4V136.839C68.0629 137.775 67.2866 138.551 66.3496 138.551Z" fill="#DFF0FE"/>
<path d="M85.102 138.551H72.654C71.7036 138.551 70.9407 137.789 70.9407 136.839V124.4C70.9407 123.451 71.7036 122.688 72.654 122.688H85.102C86.0524 122.688 86.8153 123.451 86.8153 124.4V136.839C86.8153 137.775 86.039 138.551 85.102 138.551Z" fill="#DFF0FE"/>
<path d="M103.841 138.551H91.393C90.4426 138.551 89.6797 137.789 89.6797 136.839V124.4C89.6797 123.451 90.4426 122.688 91.393 122.688H103.841C104.791 122.688 105.554 123.451 105.554 124.4V136.839C105.554 137.775 104.791 138.551 103.841 138.551Z" fill="#DFF0FE"/>
<path d="M122.594 138.551H110.145C109.195 138.551 108.432 137.789 108.432 136.839V124.4C108.432 123.451 109.195 122.688 110.145 122.688H122.594C123.544 122.688 124.307 123.451 124.307 124.4V136.839C124.307 137.775 123.544 138.551 122.594 138.551Z" fill="#DFF0FE"/>
<path d="M141.346 138.551H128.898C127.948 138.551 127.185 137.789 127.185 136.839V124.4C127.185 123.451 127.948 122.688 128.898 122.688H141.346C142.296 122.688 143.059 123.451 143.059 124.4V136.839C143.059 137.775 142.296 138.551 141.346 138.551Z" fill="#DFF0FE"/>
<path d="M160.098 138.551H147.65C146.7 138.551 145.937 137.789 145.937 136.839V124.4C145.937 123.451 146.7 122.688 147.65 122.688H160.098C161.049 122.688 161.812 123.451 161.812 124.4V136.839C161.812 137.775 161.049 138.551 160.098 138.551Z" fill="#DFF0FE"/>
<path d="M66.3496 157.102H53.9015C52.9512 157.102 52.1882 156.34 52.1882 155.391V142.952C52.1882 142.002 52.9512 141.24 53.9015 141.24H66.3496C67.2999 141.24 68.0629 142.002 68.0629 142.952V155.391C68.0629 156.327 67.2866 157.102 66.3496 157.102Z" fill="#DFF0FE"/>
<path d="M85.102 157.102H72.654C71.7036 157.102 70.9407 156.34 70.9407 155.391V142.952C70.9407 142.002 71.7036 141.24 72.654 141.24H85.102C86.0524 141.24 86.8153 142.002 86.8153 142.952V155.391C86.8153 156.327 86.039 157.102 85.102 157.102Z" fill="#DFF0FE"/>
<path d="M103.841 157.102H91.393C90.4426 157.102 89.6797 156.34 89.6797 155.391V142.952C89.6797 142.002 90.4426 141.24 91.393 141.24H103.841C104.791 141.24 105.554 142.002 105.554 142.952V155.391C105.554 156.327 104.791 157.102 103.841 157.102Z" fill="#EDF3F9"/>
<path d="M122.594 157.102H110.145C109.195 157.102 108.432 156.34 108.432 155.391V142.952C108.432 142.002 109.195 141.24 110.145 141.24H122.594C123.544 141.24 124.307 142.002 124.307 142.952V155.391C124.307 156.327 123.544 157.102 122.594 157.102Z" fill="#EDF3F9"/>
<path d="M141.346 157.102H128.898C127.948 157.102 127.185 156.34 127.185 155.391V142.952C127.185 142.002 127.948 141.24 128.898 141.24H141.346C142.296 141.24 143.059 142.002 143.059 142.952V155.391C143.059 156.327 142.296 157.102 141.346 157.102Z" fill="#DFF0FE"/>
<path d="M160.098 157.102H147.65C146.7 157.102 145.937 156.34 145.937 155.391V142.952C145.937 142.002 146.7 141.24 147.65 141.24H160.098C161.049 141.24 161.812 142.002 161.812 142.952V155.391C161.812 156.327 161.049 157.102 160.098 157.102Z" fill="#DFF0FE"/>
<path d="M150.555 119.198C133.917 119.198 120.358 132.72 120.358 149.372C120.358 166.024 133.917 179.559 150.555 179.559C167.219 179.559 180.765 166.024 180.765 149.372C180.765 132.72 167.219 119.198 150.555 119.198Z" fill="#FDC007"/>
<path d="M150.555 125.176C137.224 125.176 126.355 136.023 126.355 149.358C126.355 162.707 137.224 173.554 150.555 173.554C163.913 173.554 174.782 162.707 174.782 149.358C174.782 136.023 163.927 125.176 150.555 125.176Z" fill="#FFD961"/>
<path d="M150.314 145.065L144.211 137.789C141.226 134.231 138.816 132.292 137.304 132.185C136.795 132.145 136.38 132.265 136.073 132.8C135.604 133.643 135.939 135.957 140.262 141.093L146.366 148.369C146.071 149.653 146.339 151.044 147.249 152.127C148.788 153.959 151.505 154.187 153.339 152.662C154.41 151.766 154.919 150.468 154.865 149.171L159.014 145.694C163.15 142.229 163.632 140.277 163.391 139.354C163.284 138.926 162.923 138.377 161.865 138.337C160.38 138.297 158.278 139.461 155.641 141.681L151.492 145.159C151.104 145.078 150.716 145.038 150.314 145.065Z" fill="white"/>
<path d="M89.3451 122.181L87.4444 124.08C93.307 129.055 101.94 129.055 107.803 124.08L105.902 122.181C101.097 126.113 94.1503 126.113 89.3451 122.181ZM85.6106 122.234L87.5113 120.335C83.5761 115.533 83.5761 108.592 87.5113 103.79L85.6106 101.891C80.6314 107.749 80.6314 116.376 85.6106 122.234ZM105.902 101.958L107.803 100.058C101.94 95.0828 93.307 95.0828 87.4444 100.058L89.3451 101.958C94.1503 98.0119 101.097 98.0119 105.902 101.958ZM107.75 120.335L109.65 122.234C114.629 116.376 114.629 107.749 109.65 101.891L107.75 103.79C111.685 108.592 111.685 115.533 107.75 120.335Z" fill="#71C687" fill-opacity="0.49"/>
</g>
<defs>
<linearGradient id="paint0_linear_472_625" x1="156.809" y1="199.815" x2="53.4278" y2="20.6188" gradientUnits="userSpaceOnUse">
<stop stop-color="#D6ECFF"/>
<stop offset="1" stop-color="#EDF6FF"/>
</linearGradient>
<clipPath id="clip0_472_625">
<rect width="214" height="214" fill="white"/>
</clipPath>
</defs>
</svg>
