<svg width="111" height="30" viewBox="0 0 111 30" fill="none" xmlns="http://www.w3.org/2000/svg">
<path d="M28.6843 20.6383C31.8459 13.0368 28.2445 4.30808 20.6383 1.1465C13.0368 -2.01509 4.30808 1.58637 1.1465 9.19249C-2.01509 16.7986 1.58637 25.5227 9.19249 28.6843C16.794 31.8459 25.5227 28.2445 28.6843 20.6383ZM27.8504 21.4264C25.0416 28.1803 17.2889 31.3785 10.535 28.5698C3.78115 25.7656 0.582909 18.0128 3.39168 11.2544C3.88195 10.0814 4.51885 9.01379 5.27488 8.06532C6.22794 6.7961 7.42384 5.76057 8.77095 5.00454C12.2578 2.9014 16.6612 2.42946 20.7071 4.11105C27.4609 6.91982 30.6592 14.6726 27.8504 21.4264Z" fill="#F6C10A"/>
<path d="M20.4367 4.65595C18.7185 3.94115 16.8811 3.62958 15.062 3.70747C15.9464 3.76246 16.8307 3.92283 17.683 4.18858C18.0037 4.2848 18.3244 4.39935 18.6314 4.52765C18.7918 4.5918 18.9522 4.66969 19.1309 4.75217C24.5514 7.30434 26.9936 13.6413 24.6934 19.1763C22.3199 24.8763 15.7585 27.5843 10.0539 25.2154C5.49941 23.323 2.85559 18.7548 3.18092 14.0857C2.16829 19.7766 5.20158 25.6186 10.755 27.9279C17.1744 30.5947 24.5651 27.5476 27.2318 21.1282C29.8986 14.7089 26.847 7.31809 20.4322 4.65136" fill="#F6C10A"/>
<path d="M28.6843 20.6383C31.8459 13.0368 28.2445 4.30808 20.6383 1.1465C13.0368 -2.01509 4.30808 1.58637 1.1465 9.19249C-2.01509 16.7986 1.58637 25.5227 9.19249 28.6843C16.794 31.8459 25.5227 28.2445 28.6843 20.6383ZM27.8504 21.4264C25.0416 28.1803 17.2889 31.3785 10.535 28.5698C3.78115 25.7656 0.582909 18.0128 3.39168 11.2544C3.88195 10.0814 4.51885 9.01379 5.27488 8.06532C6.22794 6.7961 7.42384 5.76057 8.77095 5.00454C12.2578 2.9014 16.6612 2.42946 20.7071 4.11105C27.4609 6.91982 30.6592 14.6726 27.8504 21.4264Z" fill="#F6C10A"/>
<path d="M20.6473 8.66553V21.1652H18.2739L12.0423 13.5774V21.1652H9.18317V8.66553H11.575L17.7927 16.2579V8.66553H20.6473Z" fill="#00A7E1"/>
<path d="M35.8002 22.6223H34.2057V22.0449H38.0454V22.6223H36.4554V26.6865H35.8002V22.6223Z" fill="#00A7E1"/>
<path d="M41.8485 23.6622C41.8485 22.9978 41.404 22.6221 40.5564 22.6221H39.4292V24.7115H40.5564C41.404 24.7115 41.8485 24.3266 41.8485 23.6668M41.8668 26.6863L40.8679 25.2613C40.7717 25.2659 40.6755 25.275 40.5747 25.275H39.4292V26.6863H38.7648V22.0493H40.5747C41.7798 22.0493 42.5083 22.6587 42.5083 23.6668C42.5083 24.3816 42.1372 24.8993 41.4865 25.133L42.5862 26.6909H41.8622L41.8668 26.6863Z" fill="#00A7E1"/>
<path d="M46.3067 24.9955L45.3078 22.7229L44.3089 24.9955H46.3113H46.3067ZM46.5404 25.5271H44.0753L43.5667 26.6863H42.8839L44.9871 22.0493H45.6423L47.75 26.6863H47.0536L46.545 25.5271H46.5404Z" fill="#00A7E1"/>
<path d="M52.2177 22.0449L50.1833 26.6865H49.5281L47.4845 22.0449H48.2039L49.8717 25.8571L51.5533 22.0449H52.2177Z" fill="#00A7E1"/>
<path d="M56.1718 26.1092V26.6865H52.804V22.0449H56.0801V22.6223H53.4684V24.0473H55.7915V24.6108H53.4684V26.1092H56.1718Z" fill="#00A7E1"/>
<path d="M57.2439 22.0449H57.9083V26.1046H60.4193V26.6865H57.2439V22.0449Z" fill="#00A7E1"/>
<path d="M65.6841 24.9955L64.6852 22.7229L63.6864 24.9955H65.6887H65.6841ZM65.9178 25.5271H63.4527L62.9441 26.6863H62.2614L64.3645 22.0493H65.0197L67.1274 26.6863H66.431L65.9224 25.5271H65.9178Z" fill="#00A7E1"/>
<path d="M71.8009 22.0449V26.6865H71.2557L68.4744 23.2271V26.6865H67.81V22.0449H68.3553L71.1365 25.5043V22.0449H71.8009Z" fill="#00A7E1"/>
<path d="M75.1046 26.1046C76.2501 26.1046 76.9878 25.4035 76.9878 24.3634C76.9878 23.3233 76.2501 22.6177 75.1046 22.6177H73.8537V26.1046H75.1046ZM73.1893 22.0449H75.1458C76.6349 22.0449 77.6521 22.9842 77.6521 24.3634C77.6521 25.7426 76.6395 26.6819 75.1458 26.6819H73.1893V22.0449Z" fill="#00A7E1"/>
<path d="M81.3682 22.6223H79.7737V22.0449H83.6134V22.6223H82.0234V26.6865H81.3682V22.6223Z" fill="#00A7E1"/>
<path d="M88.1583 24.364C88.1583 23.3376 87.3885 22.5816 86.3622 22.5816C85.3358 22.5816 84.5523 23.3376 84.5523 24.364C84.5523 25.3904 85.322 26.1464 86.3622 26.1464C87.4023 26.1464 88.1583 25.3904 88.1583 24.364ZM83.8879 24.364C83.8879 23.0032 84.9326 21.9951 86.3576 21.9951C87.7826 21.9951 88.8181 22.9986 88.8181 24.364C88.8181 25.7294 87.7734 26.7375 86.3576 26.7375C84.9417 26.7375 83.8879 25.7249 83.8879 24.364Z" fill="#00A7E1"/>
<path d="M89.7944 24.6846V22.0454H90.4588V24.6572C90.4588 25.6835 90.9307 26.1463 91.7647 26.1463C92.5986 26.1463 93.0797 25.6835 93.0797 24.6572V22.0454H93.7212V24.6846C93.7212 26.0272 92.9835 26.7374 91.7601 26.7374C90.5367 26.7374 89.799 26.0272 89.799 24.6846" fill="#00A7E1"/>
<path d="M98.1565 23.6632C98.1565 22.9988 97.7121 22.623 96.8644 22.623H95.7372V24.7124H96.8644C97.7121 24.7124 98.1565 24.3275 98.1565 23.6677M98.1749 26.6873L97.176 25.2623C97.0843 25.2669 96.9835 25.276 96.8827 25.276H95.7372V26.6873H95.0728V22.0503H96.8827C98.0878 22.0503 98.8163 22.6597 98.8163 23.6677C98.8163 24.3825 98.4452 24.9003 97.7945 25.134L98.8942 26.6919H98.1703L98.1749 26.6873Z" fill="#00A7E1"/>
<path d="M100.553 22.0449H99.8884V26.6819H100.553V22.0449Z" fill="#00A7E1"/>
<path d="M101.52 26.1548L101.767 25.637C102.111 25.9486 102.702 26.1731 103.298 26.1731C104.1 26.1731 104.443 25.8615 104.443 25.4583C104.443 24.3266 101.634 25.0414 101.634 23.3185C101.634 22.5992 102.193 21.9897 103.412 21.9897C103.953 21.9897 104.517 22.1364 104.901 22.4021L104.682 22.9336C104.278 22.677 103.82 22.5533 103.408 22.5533C102.62 22.5533 102.281 22.8878 102.281 23.291C102.281 24.4228 105.089 23.7172 105.089 25.4171C105.089 26.1273 104.517 26.7367 103.293 26.7367C102.583 26.7367 101.891 26.4984 101.52 26.1502" fill="#00A7E1"/>
<path d="M110.359 26.6865L110.354 23.305L108.677 26.1229H108.37L106.693 23.3233V26.6865H106.056V22.0449H106.602L108.535 25.3073L110.446 22.0449H110.987L110.996 26.6865H110.359Z" fill="#00A7E1"/>
<path d="M42.1875 17.4313L36.6662 10.1184V17.4313H34.2057V6.03125H36.5563L42.0913 13.3579V6.03125H44.5335V17.4313H42.1875Z" fill="#00A7E1"/>
<path d="M49.6196 6.03125H47.0445V17.4313H49.6196V6.03125Z" fill="#00A7E1"/>
<path d="M57.0926 12.0245C58.5084 12.0245 59.324 11.3739 59.324 10.068C59.324 8.76212 58.5084 8.16188 57.0926 8.16188H54.7145V12.0245H57.0926ZM57.3354 14.1735H54.7145V17.4313H52.144V6.03125H57.0972C60.0755 6.03125 61.7708 7.46542 61.7708 9.9901C61.7708 11.7496 61.024 13.0188 59.6356 13.674L62.0641 17.4359H59.1499L57.34 14.1781L57.3354 14.1735Z" fill="#00A7E1"/>
<path d="M67.0494 17.4313L62.5682 6.03125H65.3357L68.4469 14.6271L71.5764 6.03125H74.2294L69.7024 17.4313H67.0494Z" fill="#00A7E1"/>
<path d="M79.5262 8.7157L77.7163 13.1465H81.3132L79.5216 8.7157H79.5262ZM76.8686 15.213L75.9752 17.4261H73.3176L78.2707 6.02148H80.9283L85.799 17.4261H83.0452L82.1517 15.213H76.8732H76.8686Z" fill="#00A7E1"/>
<path d="M94.9676 17.4313L89.4463 10.1184V17.4313H86.9858V6.03125H89.3318L94.8668 13.3579V6.03125H97.3136V17.4313H94.9676Z" fill="#00A7E1"/>
<path d="M104.727 8.7157L102.917 13.1465H106.514L104.723 8.7157H104.727ZM102.07 15.213L101.176 17.4261H98.5186L103.472 6.02148H106.129L111 17.4261H108.246L107.353 15.213H102.074H102.07Z" fill="#00A7E1"/>
</svg>
