<svg width="146" height="59" viewBox="0 0 146 59" fill="none" xmlns="http://www.w3.org/2000/svg">
<path d="M128.2 26.1486C117.98 32.7697 105.362 36.2242 94.9023 35.3606C79.4531 34.0652 61.8928 33.8732 42.9411 35.1207C28.4994 36.0323 14.3456 37.6636 0.959473 39.9186C34.6887 32.242 69.4255 25.7648 104.546 20.775C118.652 18.7599 132.47 17.0326 146 15.5933C138.323 20.0073 133.046 23.03 128.2 26.1486Z" fill="#223270"/>
<path d="M93.943 9.73972C89.0491 15.7371 81.2765 19.5274 73.408 19.8153C61.7971 20.1991 49.0347 21.6865 35.7925 24.3733C25.7169 26.3884 16.1211 28.9313 7.29297 31.858C28.7396 22.886 51.3856 14.7775 74.7994 7.72461C84.2032 4.89385 93.5591 2.30299 102.771 0C98.8848 4.12619 96.246 6.90897 93.943 9.73972Z" fill="#64A5CD"/>
<path d="M11.8028 46.9714V58.0066H10.2195L1.96714 49.7542V58.0066H0V46.9714H1.58331L9.83569 55.2238V46.9714H11.8028Z" fill="#223270"/>
<path d="M24.709 46.9714H26.6761V58.0066H24.709V46.9714Z" fill="#223270"/>
<path d="M48.7948 58.0544L45.8202 54.6479C45.4363 54.6479 45.1484 54.6959 44.9565 54.6959H41.598V58.0544H39.6309V47.0193H44.9565C46.7317 47.0193 48.1231 47.3551 49.1307 48.0268C50.1383 48.6985 50.666 49.6581 50.666 50.8576C50.666 51.7212 50.4261 52.4409 49.8984 53.0167C49.3706 53.6404 48.6509 54.0722 47.6434 54.3121L50.9059 58.0065H48.7948V58.0544ZM47.7393 52.6808C48.411 52.249 48.6989 51.6253 48.6989 50.8096C48.6989 49.994 48.363 49.4182 47.7393 48.9864C47.0676 48.5546 46.156 48.3627 44.9085 48.3627H41.598V53.3525H44.9085C46.156 53.3525 47.1156 53.1126 47.7393 52.6808Z" fill="#223270"/>
<path d="M74.6074 46.9714L68.61 58.0066H66.6909L60.6455 46.9714H62.7566L67.6984 56.0395L72.6882 46.9714H74.6074Z" fill="#223270"/>
<path d="M93.4627 55.2717H86.1699L84.6826 58.0544H82.6675L88.8568 47.0193H90.7759L97.0132 58.0544H94.9501L93.4627 55.2717ZM92.791 54.0242L89.8163 48.6026L86.8416 54.0242H92.791Z" fill="#223270"/>
<path d="M119.708 46.9714V58.0066H118.124L109.872 49.7542V58.0066H107.905V46.9714H109.488L117.74 55.2238V46.9714H119.708Z" fill="#223270"/>
<path d="M141.346 55.2717H134.053L132.566 58.0544H130.551L136.74 47.0193H138.659L144.896 58.0544H142.833L141.346 55.2717ZM140.674 54.0242L137.7 48.6026L134.725 54.0242H140.674Z" fill="#223270"/>
</svg>
