<svg width="250" height="250" viewBox="0 0 250 250" fill="none" xmlns="http://www.w3.org/2000/svg">
<g clip-path="url(#clip0_587_314)">
<rect width="250" height="250" fill="white"/>
<g filter="url(#filter0_d_587_314)">
<circle cx="125" cy="125" r="120" fill="#F6F8FB"/>
</g>
<mask id="mask0_587_314" style="mask-type:alpha" maskUnits="userSpaceOnUse" x="5" y="5" width="240" height="240">
<circle cx="125" cy="125" r="120" fill="#F6F8FB"/>
</mask>
<g mask="url(#mask0_587_314)">
<g filter="url(#filter1_d_587_314)">
<rect x="40" y="50" width="170" height="195" rx="20" fill="white"/>
</g>
<rect x="70" y="168" width="110" height="12" rx="6" fill="#636B81"/>
<circle cx="125" cy="118" r="38" fill="#6FCD38" fill-opacity="0.1"/>
<rect x="52" y="192" width="146" height="35" rx="8" fill="#F4F6FA"/>
<circle cx="125" cy="118" r="20" fill="#6FCD38"/>
<path d="M119.75 118.75L122.75 121.75L130.25 114.25" stroke="white" stroke-width="2" stroke-linecap="round" stroke-linejoin="round"/>
</g>
<g filter="url(#filter2_d_587_314)">
<circle cx="10.4913" cy="232.491" r="2.49116" transform="rotate(180 10.4913 232.491)" fill="#F1F3F7"/>
</g>
<g filter="url(#filter3_d_587_314)">
<circle cx="43.4913" cy="237.491" r="2.49116" transform="rotate(180 43.4913 237.491)" fill="#C1CBD4"/>
</g>
<path d="M20.267 218.678L18.4211 220.524L17.0866 219.189L18.9325 217.343L16.8462 215.257L18.2524 213.851L20.3386 215.937L22.1896 214.086L23.5242 215.421L21.6732 217.272L23.6724 219.271L22.2663 220.677L20.267 218.678Z" fill="#85C0F9"/>
<g filter="url(#filter4_d_587_314)">
<circle cx="2.49116" cy="2.49116" r="2.49116" transform="matrix(1 0 0 -1 49.5405 13.9824)" fill="#C1CBD4"/>
</g>
<g filter="url(#filter5_d_587_314)">
<circle cx="2.49116" cy="2.49116" r="2.49116" transform="matrix(1 0 0 -1 22.541 18.9824)" fill="#F1F3F7"/>
</g>
<g filter="url(#filter6_d_587_314)">
<path d="M20.2564 45.6778L22.1023 47.5237L23.4369 46.1891L21.591 44.3432L23.6772 42.257L22.271 40.8509L20.1848 42.9371L18.3338 41.0861L16.9993 42.4206L18.8503 44.2716L16.851 46.2709L18.2571 47.6771L20.2564 45.6778Z" fill="#85C0F9"/>
</g>
<g filter="url(#filter7_d_587_314)">
<g filter="url(#filter8_d_587_314)">
<circle cx="220" cy="43" r="17" fill="white"/>
</g>
<path d="M219.813 44.9657C219.703 44.9657 219.592 44.9248 219.504 44.8373C219.335 44.6682 219.335 44.3882 219.504 44.219L220.688 43.0348L219.504 41.8507C219.335 41.6815 219.335 41.4015 219.504 41.2323C219.673 41.0632 219.953 41.0632 220.123 41.2323L221.616 42.7257C221.785 42.8948 221.785 43.1748 221.616 43.344L220.123 44.8373C220.041 44.9248 219.924 44.9657 219.813 44.9657Z" fill="#636B81"/>
<path d="M221.266 43.4727H215.333C215.094 43.4727 214.896 43.2743 214.896 43.0352C214.896 42.796 215.094 42.5977 215.333 42.5977H221.266C221.505 42.5977 221.703 42.796 221.703 43.0352C221.703 43.2743 221.505 43.4727 221.266 43.4727Z" fill="#636B81"/>
<path d="M220 48.1043C219.761 48.1043 219.562 47.906 219.562 47.6668C219.562 47.4277 219.761 47.2293 220 47.2293C222.491 47.2293 224.229 45.491 224.229 43.0002C224.229 40.5093 222.491 38.771 220 38.771C219.761 38.771 219.562 38.5727 219.562 38.3335C219.562 38.0943 219.761 37.896 220 37.896C223.004 37.896 225.104 39.996 225.104 43.0002C225.104 46.0043 223.004 48.1043 220 48.1043Z" fill="#636B81"/>
</g>
<g filter="url(#filter9_d_587_314)">
<path d="M23.5 160.781C22.2956 160.685 19.5977 161.417 18.4414 165.117C16.9961 169.742 16.9961 178.992 5 179.137" stroke="#FE5284" stroke-width="4" stroke-linecap="round"/>
</g>
<g filter="url(#filter10_d_587_314)">
<path d="M246.341 202.298C243.351 202.264 237.153 200.276 236.282 192.594C235.477 185.492 244.707 185.75 242.552 191.449C240.73 196.269 226.944 201.286 221.81 182.962" stroke="#F39958" stroke-width="4" stroke-linecap="round" shape-rendering="crispEdges"/>
</g>
<g filter="url(#filter11_d_587_314)">
<path d="M175.283 16.9282C179.093 14.0029 188 8.86584 198.273 14.2971" stroke="#85C0F9" stroke-width="4" stroke-linecap="round"/>
</g>
</g>
<defs>
<filter id="filter0_d_587_314" x="-15" y="-11" width="280" height="280" filterUnits="userSpaceOnUse" color-interpolation-filters="sRGB">
<feFlood flood-opacity="0" result="BackgroundImageFix"/>
<feColorMatrix in="SourceAlpha" type="matrix" values="0 0 0 0 0 0 0 0 0 0 0 0 0 0 0 0 0 0 127 0" result="hardAlpha"/>
<feOffset dy="4"/>
<feGaussianBlur stdDeviation="10"/>
<feComposite in2="hardAlpha" operator="out"/>
<feColorMatrix type="matrix" values="0 0 0 0 0.905882 0 0 0 0 0.933333 0 0 0 0 0.984314 0 0 0 0.15 0"/>
<feBlend mode="normal" in2="BackgroundImageFix" result="effect1_dropShadow_587_314"/>
<feBlend mode="normal" in="SourceGraphic" in2="effect1_dropShadow_587_314" result="shape"/>
</filter>
<filter id="filter1_d_587_314" x="-60" y="-46" width="370" height="395" filterUnits="userSpaceOnUse" color-interpolation-filters="sRGB">
<feFlood flood-opacity="0" result="BackgroundImageFix"/>
<feColorMatrix in="SourceAlpha" type="matrix" values="0 0 0 0 0 0 0 0 0 0 0 0 0 0 0 0 0 0 127 0" result="hardAlpha"/>
<feOffset dy="4"/>
<feGaussianBlur stdDeviation="50"/>
<feComposite in2="hardAlpha" operator="out"/>
<feColorMatrix type="matrix" values="0 0 0 0 0.388235 0 0 0 0 0.419608 0 0 0 0 0.505882 0 0 0 0.15 0"/>
<feBlend mode="normal" in2="BackgroundImageFix" result="effect1_dropShadow_587_314"/>
<feBlend mode="normal" in="SourceGraphic" in2="effect1_dropShadow_587_314" result="shape"/>
</filter>
<filter id="filter2_d_587_314" x="4" y="230" width="12.9824" height="12.9824" filterUnits="userSpaceOnUse" color-interpolation-filters="sRGB">
<feFlood flood-opacity="0" result="BackgroundImageFix"/>
<feColorMatrix in="SourceAlpha" type="matrix" values="0 0 0 0 0 0 0 0 0 0 0 0 0 0 0 0 0 0 127 0" result="hardAlpha"/>
<feOffset dy="4"/>
<feGaussianBlur stdDeviation="2"/>
<feComposite in2="hardAlpha" operator="out"/>
<feColorMatrix type="matrix" values="0 0 0 0 0 0 0 0 0 0 0 0 0 0 0 0 0 0 0.25 0"/>
<feBlend mode="normal" in2="BackgroundImageFix" result="effect1_dropShadow_587_314"/>
<feBlend mode="normal" in="SourceGraphic" in2="effect1_dropShadow_587_314" result="shape"/>
</filter>
<filter id="filter3_d_587_314" x="37" y="235" width="12.9824" height="12.9824" filterUnits="userSpaceOnUse" color-interpolation-filters="sRGB">
<feFlood flood-opacity="0" result="BackgroundImageFix"/>
<feColorMatrix in="SourceAlpha" type="matrix" values="0 0 0 0 0 0 0 0 0 0 0 0 0 0 0 0 0 0 127 0" result="hardAlpha"/>
<feOffset dy="4"/>
<feGaussianBlur stdDeviation="2"/>
<feComposite in2="hardAlpha" operator="out"/>
<feColorMatrix type="matrix" values="0 0 0 0 0 0 0 0 0 0 0 0 0 0 0 0 0 0 0.25 0"/>
<feBlend mode="normal" in2="BackgroundImageFix" result="effect1_dropShadow_587_314"/>
<feBlend mode="normal" in="SourceGraphic" in2="effect1_dropShadow_587_314" result="shape"/>
</filter>
<filter id="filter4_d_587_314" x="45.5405" y="9" width="12.9824" height="12.9824" filterUnits="userSpaceOnUse" color-interpolation-filters="sRGB">
<feFlood flood-opacity="0" result="BackgroundImageFix"/>
<feColorMatrix in="SourceAlpha" type="matrix" values="0 0 0 0 0 0 0 0 0 0 0 0 0 0 0 0 0 0 127 0" result="hardAlpha"/>
<feOffset dy="4"/>
<feGaussianBlur stdDeviation="2"/>
<feComposite in2="hardAlpha" operator="out"/>
<feColorMatrix type="matrix" values="0 0 0 0 0 0 0 0 0 0 0 0 0 0 0 0 0 0 0.25 0"/>
<feBlend mode="normal" in2="BackgroundImageFix" result="effect1_dropShadow_587_314"/>
<feBlend mode="normal" in="SourceGraphic" in2="effect1_dropShadow_587_314" result="shape"/>
</filter>
<filter id="filter5_d_587_314" x="18.541" y="14" width="12.9824" height="12.9824" filterUnits="userSpaceOnUse" color-interpolation-filters="sRGB">
<feFlood flood-opacity="0" result="BackgroundImageFix"/>
<feColorMatrix in="SourceAlpha" type="matrix" values="0 0 0 0 0 0 0 0 0 0 0 0 0 0 0 0 0 0 127 0" result="hardAlpha"/>
<feOffset dy="4"/>
<feGaussianBlur stdDeviation="2"/>
<feComposite in2="hardAlpha" operator="out"/>
<feColorMatrix type="matrix" values="0 0 0 0 0 0 0 0 0 0 0 0 0 0 0 0 0 0 0.25 0"/>
<feBlend mode="normal" in2="BackgroundImageFix" result="effect1_dropShadow_587_314"/>
<feBlend mode="normal" in="SourceGraphic" in2="effect1_dropShadow_587_314" result="shape"/>
</filter>
<filter id="filter6_d_587_314" x="12.8511" y="40.8511" width="14.8262" height="14.8262" filterUnits="userSpaceOnUse" color-interpolation-filters="sRGB">
<feFlood flood-opacity="0" result="BackgroundImageFix"/>
<feColorMatrix in="SourceAlpha" type="matrix" values="0 0 0 0 0 0 0 0 0 0 0 0 0 0 0 0 0 0 127 0" result="hardAlpha"/>
<feOffset dy="4"/>
<feGaussianBlur stdDeviation="2"/>
<feComposite in2="hardAlpha" operator="out"/>
<feColorMatrix type="matrix" values="0 0 0 0 0 0 0 0 0 0 0 0 0 0 0 0 0 0 0.25 0"/>
<feBlend mode="normal" in2="BackgroundImageFix" result="effect1_dropShadow_587_314"/>
<feBlend mode="normal" in="SourceGraphic" in2="effect1_dropShadow_587_314" result="shape"/>
</filter>
<filter id="filter7_d_587_314" x="199" y="26" width="42" height="42" filterUnits="userSpaceOnUse" color-interpolation-filters="sRGB">
<feFlood flood-opacity="0" result="BackgroundImageFix"/>
<feColorMatrix in="SourceAlpha" type="matrix" values="0 0 0 0 0 0 0 0 0 0 0 0 0 0 0 0 0 0 127 0" result="hardAlpha"/>
<feOffset dy="4"/>
<feGaussianBlur stdDeviation="2"/>
<feComposite in2="hardAlpha" operator="out"/>
<feColorMatrix type="matrix" values="0 0 0 0 0 0 0 0 0 0 0 0 0 0 0 0 0 0 0.25 0"/>
<feBlend mode="normal" in2="BackgroundImageFix" result="effect1_dropShadow_587_314"/>
<feBlend mode="normal" in="SourceGraphic" in2="effect1_dropShadow_587_314" result="shape"/>
</filter>
<filter id="filter8_d_587_314" x="143" y="-30" width="154" height="154" filterUnits="userSpaceOnUse" color-interpolation-filters="sRGB">
<feFlood flood-opacity="0" result="BackgroundImageFix"/>
<feColorMatrix in="SourceAlpha" type="matrix" values="0 0 0 0 0 0 0 0 0 0 0 0 0 0 0 0 0 0 127 0" result="hardAlpha"/>
<feOffset dy="4"/>
<feGaussianBlur stdDeviation="30"/>
<feComposite in2="hardAlpha" operator="out"/>
<feColorMatrix type="matrix" values="0 0 0 0 0.388235 0 0 0 0 0.419608 0 0 0 0 0.505882 0 0 0 0.25 0"/>
<feBlend mode="normal" in2="BackgroundImageFix" result="effect1_dropShadow_587_314"/>
<feBlend mode="normal" in="SourceGraphic" in2="effect1_dropShadow_587_314" result="shape"/>
</filter>
<filter id="filter9_d_587_314" x="-1" y="158.773" width="30.5" height="30.3633" filterUnits="userSpaceOnUse" color-interpolation-filters="sRGB">
<feFlood flood-opacity="0" result="BackgroundImageFix"/>
<feColorMatrix in="SourceAlpha" type="matrix" values="0 0 0 0 0 0 0 0 0 0 0 0 0 0 0 0 0 0 127 0" result="hardAlpha"/>
<feOffset dy="4"/>
<feGaussianBlur stdDeviation="2"/>
<feComposite in2="hardAlpha" operator="out"/>
<feColorMatrix type="matrix" values="0 0 0 0 0 0 0 0 0 0 0 0 0 0 0 0 0 0 0.25 0"/>
<feBlend mode="normal" in2="BackgroundImageFix" result="effect1_dropShadow_587_314"/>
<feBlend mode="normal" in="SourceGraphic" in2="effect1_dropShadow_587_314" result="shape"/>
</filter>
<filter id="filter10_d_587_314" x="215.81" y="180.961" width="36.5308" height="31.3369" filterUnits="userSpaceOnUse" color-interpolation-filters="sRGB">
<feFlood flood-opacity="0" result="BackgroundImageFix"/>
<feColorMatrix in="SourceAlpha" type="matrix" values="0 0 0 0 0 0 0 0 0 0 0 0 0 0 0 0 0 0 127 0" result="hardAlpha"/>
<feOffset dy="4"/>
<feGaussianBlur stdDeviation="2"/>
<feComposite in2="hardAlpha" operator="out"/>
<feColorMatrix type="matrix" values="0 0 0 0 0 0 0 0 0 0 0 0 0 0 0 0 0 0 0.25 0"/>
<feBlend mode="normal" in2="BackgroundImageFix" result="effect1_dropShadow_587_314"/>
<feBlend mode="normal" in="SourceGraphic" in2="effect1_dropShadow_587_314" result="shape"/>
</filter>
<filter id="filter11_d_587_314" x="169.283" y="9.90527" width="34.9902" height="17.0229" filterUnits="userSpaceOnUse" color-interpolation-filters="sRGB">
<feFlood flood-opacity="0" result="BackgroundImageFix"/>
<feColorMatrix in="SourceAlpha" type="matrix" values="0 0 0 0 0 0 0 0 0 0 0 0 0 0 0 0 0 0 127 0" result="hardAlpha"/>
<feOffset dy="4"/>
<feGaussianBlur stdDeviation="2"/>
<feComposite in2="hardAlpha" operator="out"/>
<feColorMatrix type="matrix" values="0 0 0 0 0 0 0 0 0 0 0 0 0 0 0 0 0 0 0.25 0"/>
<feBlend mode="normal" in2="BackgroundImageFix" result="effect1_dropShadow_587_314"/>
<feBlend mode="normal" in="SourceGraphic" in2="effect1_dropShadow_587_314" result="shape"/>
</filter>
<clipPath id="clip0_587_314">
<rect width="250" height="250" fill="white"/>
</clipPath>
</defs>
</svg>
